<svg id="object" height="512" viewBox="0 0 100 100" width="512" xmlns="http://www.w3.org/2000/svg"><g id="_3-3"><g><g><path d="m24.771 58.355v-50.428c0-1.047.848-1.895 1.895-1.895h46.669c1.047 0 1.895.848 1.895 1.895v50.428c0 .867-.703 1.57-1.57 1.57h-47.32c-.867 0-1.57-.703-1.57-1.57z" fill="#d8e3e7"/><path d="m34.66 91.507h-11.656c-1.39 0-2.517-1.127-2.517-2.517v-43.742c0-1.39 1.127-2.517 2.517-2.517h26.182c1.551 0 2.989.807 3.797 2.131l4.583 7.507c.808 1.323 2.247 2.131 3.797 2.131h15.632c1.39 0 2.517 1.127 2.517 2.517v31.973c0 1.39-1.127 2.517-2.517 2.517z" fill="#132c33"/><path d="m34.66 91.521h-11.656c-1.39 0-2.517-1.127-2.517-2.517v-22.568c0-4.139 3.355-7.495 7.495-7.495h51.533v30.062c0 1.39-1.127 2.517-2.517 2.517h-42.338z" fill="#126e82"/><path d="m75.514 85.296c-.553 0-1-.448-1-1v-5.037c0-.552.447-1 1-1s1 .448 1 1v5.037c0 .552-.447 1-1 1zm1-9.148v-10.963c0-.552-.447-1-1-1s-1 .448-1 1v10.963c0 .552.447 1 1 1s1-.448 1-1z" fill="#d8e3e7"/><path d="m45.852 48.111h-11.192c-.552 0-1-.448-1-1s.448-1 1-1h11.192c.552 0 1 .448 1 1s-.448 1-1 1z" fill="#126e82"/><path d="m31.037 48.111h-6.267c-.552 0-1-.448-1-1s.448-1 1-1h6.267c.552 0 1 .448 1 1s-.448 1-1 1z" fill="#d8e3e7"/><path d="m40.963 51.815h-6.303c-.552 0-1-.448-1-1s.448-1 1-1h6.303c.552 0 1 .448 1 1s-.448 1-1 1z" fill="#51c4d3"/><path d="m31.037 51.815h-6.267c-.552 0-1-.448-1-1s.448-1 1-1h6.267c.552 0 1 .448 1 1s-.448 1-1 1z" fill="#d8e3e7"/><path d="m65.34 78.38v15.588h-7.102v-8.372h-16.476v8.372h-7.102v-15.588z" fill="#51c4d3"/></g><g><path d="m62.444 21.913c0 2.57-.75 4.95-2.05 6.96l-10.79-6.96v12.84c-7.09 0-12.84-5.75-12.84-12.84s5.75-12.83 12.84-12.83 12.84 5.74 12.84 12.83z" fill="#126e82"/><path d="m63.236 34.173c-2.29 3.54-6.27 5.88-10.79 5.88v-12.84z" fill="#132c33"/><path d="m62.44 21.91c0 2.57-.75 4.95-2.05 6.96l-10.79-6.96 5.36-11.66c4.41 2.02 7.48 6.48 7.48 11.66z" fill="#51c4d3"/></g></g></g></svg>