<svg viewBox="0 0 512 512" xmlns="http://www.w3.org/2000/svg"><g id="Layer_1" data-name="Layer 1"><path d="m438.6 475.794h-392.158a35.335 35.335 0 0 1 -35.335-35.335v-233.693a35.335 35.335 0 0 1 35.335-35.335h392.158a35.335 35.335 0 0 1 35.334 35.335v233.693a35.335 35.335 0 0 1 -35.334 35.335z" fill="#ffd9b3"/><path d="m65.9 475.794h-19.458a35.335 35.335 0 0 1 -35.335-35.335v-233.693a35.335 35.335 0 0 1 35.335-35.335h20.273l-16.376 15.434a26.779 26.779 0 0 0 -8.412 19.488v245.472a23.969 23.969 0 0 0 23.973 23.969z" fill="#fb9"/><path d="m461.147 179.557-193.538 164.952a38.8 38.8 0 0 1 -50.365-.024l-193.253-165.006c.509-.423 193.869-164.679 193.869-164.679a37.855 37.855 0 0 1 49.132-.023s194.108 164.739 194.155 164.78z" fill="#eabd8c"/><path d="m43.843 196.429-19.852-16.95c.509-.423 193.869-164.679 193.869-164.679a37.775 37.775 0 0 1 24.661-9.063l-192.182 181.128a26.76 26.76 0 0 0 -6.496 9.564z" fill="#d3a06c"/><path d="m47.089 475.794a36.706 36.706 0 0 1 -24.645-9.461l161.621-149.533h116.852l161.683 147.874a36.724 36.724 0 0 1 -26.365 11.12z" fill="#eabd8c"/><path d="m65.9 475.794h-18.811a36.7 36.7 0 0 1 -24.645-9.462l19.483-18.025v3.518a23.969 23.969 0 0 0 23.973 23.969z" fill="#d3a06c"/><path d="m79.329 226.729v-152.703a15.393 15.393 0 0 1 15.393-15.393h295.6a15.392 15.392 0 0 1 15.392 15.393v152.774l-136.571 118.7c-6.784 5.78-16.592 15.912-24.964 16.286-9.542.425-19.211-10.706-26.935-17.3z" fill="#f5f5f5"/><path d="m175.215 242.708h-30.015v-35.536h30.015z" fill="#ff5959"/><path d="m160.207 242.708h-15.007v-35.536h15.007z" fill="#e63a57"/><path d="m230.091 242.708h-30.015v-70.689h30.015z" fill="#fdbf00"/><path d="m215.084 242.708h-15.008v-70.689h15.008z" fill="#ff9100"/><path d="m284.967 242.708h-30.015v-105.842h30.015z" fill="#ffdf40"/><path d="m269.96 242.708h-15.008v-105.842h15.008z" fill="#ffbe40"/><path d="m339.843 103.087v139.621h-30.015v-139.621z" fill="#52cc7b"/><path d="m324.836 103.087v139.621h-15.008v-139.621z" fill="#3d997a"/><path d="m495.629 356.411a51.605 51.605 0 0 0 -13.728-4.944 10.035 10.035 0 0 1 -7.374-6.484 105.013 105.013 0 0 0 -4.341-10.451 10.208 10.208 0 0 1 .546-9.969 54.384 54.384 0 0 0 6.207-12.875 9.991 9.991 0 0 0 -2.487-10.12l-21.058-21.057a10.014 10.014 0 0 0 -9.974-2.533 51.594 51.594 0 0 0 -13.207 6.213 10.038 10.038 0 0 1 -9.81.624 104.826 104.826 0 0 0 -10.459-4.327 10.206 10.206 0 0 1 -6.653-7.432 54.346 54.346 0 0 0 -4.713-13.484 10 10 0 0 0 -8.919-5.4h-29.77a10.026 10.026 0 0 0 -8.851 5.263 51.628 51.628 0 0 0 -4.943 13.728 10.034 10.034 0 0 1 -6.484 7.374 105.03 105.03 0 0 0 -10.452 4.341 10.206 10.206 0 0 1 -9.969-.546 54.394 54.394 0 0 0 -12.874-6.206 9.991 9.991 0 0 0 -10.12 2.487l-21.058 21.057a10.02 10.02 0 0 0 -2.533 9.975 51.6 51.6 0 0 0 6.214 13.207 10.038 10.038 0 0 1 .624 9.81 104.907 104.907 0 0 0 -4.327 10.458 10.207 10.207 0 0 1 -7.433 6.653 54.379 54.379 0 0 0 -13.483 4.713 10 10 0 0 0 -5.4 8.92v29.77a10.023 10.023 0 0 0 5.263 8.85 51.605 51.605 0 0 0 13.728 4.944 10.032 10.032 0 0 1 7.374 6.484 105.112 105.112 0 0 0 4.341 10.451 10.208 10.208 0 0 1 -.546 9.969 54.354 54.354 0 0 0 -6.206 12.874 9.988 9.988 0 0 0 2.487 10.12l21.059 21.06a10.014 10.014 0 0 0 9.974 2.533 51.627 51.627 0 0 0 13.207-6.213 10.037 10.037 0 0 1 9.811-.624 105.046 105.046 0 0 0 10.458 4.327 10.206 10.206 0 0 1 6.653 7.432 54.386 54.386 0 0 0 4.713 13.484 10 10 0 0 0 8.92 5.4h29.769a10.025 10.025 0 0 0 8.851-5.267 51.646 51.646 0 0 0 4.944-13.727 10.03 10.03 0 0 1 6.484-7.374 105.457 105.457 0 0 0 10.451-4.342 10.208 10.208 0 0 1 9.969.546 54.377 54.377 0 0 0 12.874 6.207 9.991 9.991 0 0 0 10.12-2.487l21.058-21.058a10.015 10.015 0 0 0 2.533-9.974 51.627 51.627 0 0 0 -6.213-13.207 10.038 10.038 0 0 1 -.625-9.81 104.907 104.907 0 0 0 4.327-10.458 10.207 10.207 0 0 1 7.433-6.653 54.386 54.386 0 0 0 13.484-4.713 10 10 0 0 0 5.4-8.92v-29.77a10.022 10.022 0 0 0 -5.266-8.849zm-120.782 92.6a68.793 68.793 0 1 1 68.792-68.793 68.792 68.792 0 0 1 -68.792 68.794z" fill="#6cf"/><path d="m113.768 256.134-34.439-29.4v-152.708a15.393 15.393 0 0 1 15.393-15.393h27.437a15.305 15.305 0 0 0 -8.391 2.5z" fill="#e6e6e6"/><path d="m374.847 506.265h-14.811a10 10 0 0 1 -8.92-5.4 54.386 54.386 0 0 1 -4.713-13.484 10.206 10.206 0 0 0 -6.653-7.432 105.046 105.046 0 0 1 -10.458-4.327 10.037 10.037 0 0 0 -9.811.624 51.627 51.627 0 0 1 -13.207 6.213 10.014 10.014 0 0 1 -9.974-2.533l-21.057-21.056a9.988 9.988 0 0 1 -2.487-10.12 54.354 54.354 0 0 1 6.206-12.874 10.208 10.208 0 0 0 .546-9.969 105.112 105.112 0 0 1 -4.341-10.451 10.032 10.032 0 0 0 -7.374-6.484 51.605 51.605 0 0 1 -13.728-4.944 10.023 10.023 0 0 1 -5.263-8.85v-29.77a10 10 0 0 1 5.4-8.92 54.379 54.379 0 0 1 13.483-4.713 10.207 10.207 0 0 0 7.433-6.653 104.907 104.907 0 0 1 4.327-10.458 10.038 10.038 0 0 0 -.624-9.81 51.6 51.6 0 0 1 -6.214-13.207 10.02 10.02 0 0 1 2.533-9.975l21.06-21.057a9.991 9.991 0 0 1 10.12-2.487 54.394 54.394 0 0 1 12.874 6.206 10.206 10.206 0 0 0 9.969.546 105.03 105.03 0 0 1 10.452-4.341 10.034 10.034 0 0 0 6.484-7.374 51.628 51.628 0 0 1 4.943-13.728 10.026 10.026 0 0 1 8.851-5.263h14.958v57.253a68.793 68.793 0 0 0 0 137.585z" fill="#4da6ff"/></g></svg>